<svg xmlns="http://www.w3.org/2000/svg" version="1.1" xmlns:xlink="http://www.w3.org/1999/xlink" xmlns:svgjs="http://svgjs.dev/svgjs" width="1500" height="1687" viewBox="0 0 1500 1687"><g transform="matrix(1,0,0,1,0.00002668866648036783,0)"><svg viewBox="0 0 320 360" data-background-color="#ffffff" preserveAspectRatio="xMidYMid meet" height="1687" width="1500" xmlns="http://www.w3.org/2000/svg" xmlns:xlink="http://www.w3.org/1999/xlink"><g id="tight-bounds" transform="matrix(1,0,0,1,0.000005693582238563977,0)"><svg viewBox="0 0 320 360" height="360" width="320"><g><svg></svg></g><g><svg viewBox="0 0 320 360" height="360" width="320"><g><path transform="translate(-8.74414,11.24127) scale(3.37517,3.37517)" d="M89.9 29.89c-2.6-3.17-7.52-4.8-12.74-6.52-2.24-0.74-4.55-1.51-6.81-2.44-2.28-0.94-4.52-2.15-6.7-3.31-4.43-2.38-9.01-4.84-13.66-4.84-4.64 0-9.22 2.46-13.65 4.84-2.18 1.17-4.43 2.38-6.71 3.32-2.25 0.93-4.57 1.69-6.81 2.44-5.22 1.73-10.14 3.36-12.74 6.52-3.47 4.23-3.39 10.5-3.31 17.13 0.01 1 0.02 1.99 0.02 2.97 0 0.98-0.01 1.97-0.03 2.97-0.08 6.64-0.16 12.9 3.31 17.14 2.6 3.16 7.52 4.79 12.73 6.52 2.24 0.74 4.55 1.51 6.82 2.44 2.28 0.94 4.52 2.14 6.69 3.31 4.44 2.39 9.02 4.85 13.66 4.85 4.65 0 9.23-2.46 13.66-4.84 2.18-1.17 4.42-2.38 6.7-3.31 2.25-0.93 4.55-1.69 6.78-2.43 5.25-1.74 10.17-3.37 12.77-6.53 3.47-4.23 3.39-10.5 3.31-17.13-0.01-1.01-0.03-2-0.03-2.98 0-0.98 0.01-1.97 0.03-2.96 0.11-6.66 0.19-12.93-3.29-17.16zM93.12 27.25c-4.66-5.68-13.57-7.03-21.18-10.17-6.81-2.8-13.74-8.47-21.94-8.47-8.2 0-15.13 5.67-21.94 8.47-7.62 3.14-16.52 4.49-21.18 10.17-5.06 6.16-4.24 14.85-4.24 22.75 0 7.89-0.82 16.59 4.23 22.75 4.66 5.68 13.57 7.03 21.18 10.17 6.81 2.81 13.74 8.47 21.94 8.47 8.2 0 15.13-5.66 21.94-8.47 7.62-3.14 16.52-4.49 21.18-10.17 5.05-6.16 4.23-14.85 4.23-22.75 0.02-7.9 0.84-16.59-4.22-22.75zM94.4 52.94c0.09 6.88 0.17 13.35-3.58 17.92-2.82 3.43-7.9 5.12-13.28 6.9-2.24 0.74-4.53 1.5-6.73 2.41-2.22 0.91-4.43 2.1-6.57 3.25-4.58 2.46-9.29 4.99-14.24 4.99-4.95 0-9.66-2.53-14.22-4.98-2.15-1.16-4.37-2.35-6.59-3.26-2.23-0.92-4.52-1.68-6.74-2.41-5.39-1.78-10.47-3.47-13.28-6.9-3.74-4.56-3.66-11.04-3.58-17.9 0.01-1 0.03-1.98 0.03-2.96 0-0.98-0.01-1.96-0.02-2.96-0.09-6.86-0.17-13.34 3.58-17.9 2.82-3.43 7.9-5.11 13.28-6.9 2.23-0.74 4.52-1.5 6.74-2.41 2.22-0.92 4.44-2.11 6.59-3.26 4.56-2.45 9.28-4.99 14.22-4.99 4.94 0 9.66 2.53 14.22 4.98 2.15 1.16 4.37 2.35 6.59 3.26 2.22 0.92 4.52 1.67 6.73 2.41 5.38 1.78 10.47 3.47 13.28 6.9 3.75 4.57 3.67 11.04 3.58 17.9-0.01 1.01-0.03 1.99-0.03 2.96 0 0.98 0.01 1.96 0.02 2.95z" fill="#202046" fill-rule="nonzero" stroke="none" stroke-width="1" stroke-linecap="butt" stroke-linejoin="miter" stroke-miterlimit="10" stroke-dasharray="" stroke-dashoffset="0" font-family="none" font-weight="none" font-size="none" text-anchor="none" style="mix-blend-mode: normal" data-fill-palette-color="tertiary"></path></g><g transform="matrix(1,0,0,1,66.03025875202398,108)"><svg viewBox="0 0 187.93948249595203 144" height="144" width="187.93948249595203"><g><svg viewBox="0 0 315.6295787258025 241.83667387449842" height="144" width="187.93948249595203"><g transform="matrix(1,0,0,1,122.66957872580255,74.73104246160017)"><svg viewBox="0 0 192.95999999999998 92.3745889512981" height="92.3745889512981" width="192.95999999999998"><g id="textblocktransform"><svg viewBox="0 0 192.95999999999998 92.3745889512981" height="92.3745889512981" width="192.95999999999998" id="textblock"><g><rect width="192.95999999999998" height="5.281323640305018" x="0" y="64.78502965206597" fill="#ffffff" opacity="1" stroke-width="0" stroke="transparent" fill-opacity="1" class="rect-qz-0" data-fill-palette-color="quaternary" rx="1%" id="qz-0" data-palette-color="#ffffff"></rect></g><g transform="matrix(1,0,0,1,0.47999999999998977,0)"><svg viewBox="0 0 192 58.56357510196843" height="58.56357510196843" width="192"><g transform="matrix(1,0,0,1,0,0)"><svg width="192" viewBox="1.81 -35.99 137.66 42" height="58.56357510196843" data-palette-color="#ffffff"><path d="M10.23-13.38L10.23-13.38Q11.74-13.04 13.26-12.84 14.77-12.65 16.31-12.65L16.31-12.65Q17.92-12.65 19.3-12.95 20.68-13.26 21.69-13.98 22.71-14.7 23.29-15.89 23.88-17.09 23.88-18.87L23.88-18.87Q23.88-20.31 23.49-21.51 23.1-22.71 22.33-23.56 21.56-24.41 20.43-24.89 19.31-25.37 17.82-25.37L17.82-25.37Q16.43-25.37 15.32-24.85 14.21-24.34 13.37-23.47 12.52-22.61 11.93-21.46 11.33-20.31 10.94-19.07 10.55-17.82 10.38-16.55 10.21-15.28 10.21-14.16L10.21-14.16Q10.21-13.96 10.21-13.77 10.21-13.57 10.23-13.38ZM30.57-18.95L30.57-18.95Q30.57-17.21 30-15.86 29.44-14.5 28.48-13.48 27.51-12.45 26.25-11.74 24.98-11.04 23.54-10.58 22.09-10.13 20.57-9.94 19.04-9.74 17.6-9.74L17.6-9.74Q15.77-9.74 13.99-10 12.21-10.25 10.47-10.82L10.47-10.82Q10.74-9.2 11.33-7.75 11.91-6.3 12.89-5.21 13.87-4.13 15.3-3.49 16.72-2.86 18.68-2.86L18.68-2.86Q19.97-2.86 21.14-3.25 22.31-3.64 23.29-4.35 24.27-5.05 25.01-6.03 25.76-7.01 26.22-8.2L26.22-8.2 29.79-6.88Q28.98-4.96 27.58-3.55 26.17-2.15 24.4-1.23 22.63-0.32 20.64 0.12 18.65 0.56 16.7 0.56L16.7 0.56Q13.48 0.56 10.74-0.52 8.01-1.61 6.03-3.56 4.05-5.52 2.93-8.23 1.81-10.94 1.81-14.16L1.81-14.16Q1.81-17.38 2.93-20.09 4.05-22.8 6.03-24.76 8.01-26.71 10.74-27.8 13.48-28.88 16.7-28.88L16.7-28.88Q18.26-28.88 19.9-28.66 21.53-28.44 23.07-27.97 24.61-27.49 25.98-26.73 27.34-25.98 28.36-24.87 29.37-23.75 29.97-22.29 30.57-20.83 30.57-18.95ZM72.95-17.63L72.95-17.63Q72.95-13.38 71.48-9.97 70.02-6.57 67.43-4.2 64.84-1.83 61.3-0.56 57.76 0.71 53.64 0.71L53.64 0.71Q49.51 0.71 45.97-0.56 42.43-1.83 39.84-4.2 37.25-6.57 35.79-9.97 34.32-13.38 34.32-17.63L34.32-17.63Q34.32-21.95 35.78-25.35 37.23-28.76 39.8-31.12 42.38-33.47 45.92-34.73 49.46-35.99 53.64-35.99L53.64-35.99Q57.81-35.99 61.35-34.73 64.89-33.47 67.47-31.12 70.04-28.76 71.49-25.35 72.95-21.95 72.95-17.63ZM63.08-17.63L63.08-17.63Q63.08-19.24 62.94-20.92 62.79-22.61 62.4-24.19 62.01-25.78 61.34-27.17 60.67-28.56 59.62-29.6 58.57-30.64 57.09-31.24 55.61-31.84 53.64-31.84L53.64-31.84Q51.63-31.84 50.14-31.24 48.65-30.64 47.6-29.61 46.56-28.59 45.9-27.2 45.24-25.81 44.86-24.23 44.48-22.66 44.33-20.96 44.19-19.26 44.19-17.63L44.19-17.63Q44.19-16.02 44.33-14.33 44.48-12.65 44.87-11.07 45.26-9.5 45.93-8.11 46.6-6.71 47.65-5.68 48.7-4.64 50.18-4.03 51.66-3.42 53.64-3.42L53.64-3.42Q55.56-3.42 57-4.04 58.44-4.66 59.49-5.73 60.54-6.79 61.24-8.19 61.94-9.59 62.34-11.17 62.74-12.74 62.91-14.4 63.08-16.06 63.08-17.63ZM106.9-16.16L106.9-16.16Q106.9-13.31 106.21-10.21 105.51-7.1 104.27-4.13 103.02-1.15 101.29 1.48 99.56 4.1 97.48 6.01L97.48 6.01 94.38 4.32Q95.04 3.1 95.62 1.59 96.21 0.07 96.69-1.62 97.16-3.32 97.54-5.13 97.92-6.93 98.18-8.7 98.43-10.47 98.57-12.15 98.7-13.82 98.7-15.26L98.7-15.26Q98.7-16.21 98.63-17.3 98.55-18.38 98.32-19.47 98.09-20.56 97.7-21.56 97.31-22.56 96.66-23.32 96.02-24.07 95.1-24.54 94.18-25 92.94-25L92.94-25Q91.72-25 90.77-24.45 89.81-23.9 89.08-23.01 88.35-22.12 87.82-20.97 87.3-19.82 86.97-18.62 86.64-17.41 86.49-16.24 86.35-15.06 86.35-14.14L86.35-14.14 86.35 0 78.07 0 78.07-28.2 81.25-28.2 85.03-21.63Q85.71-23.27 86.74-24.61 87.76-25.95 89.06-26.9 90.35-27.86 91.93-28.37 93.5-28.88 95.33-28.88L95.33-28.88Q98.26-28.88 100.43-27.93 102.61-26.98 104.05-25.28 105.49-23.58 106.2-21.25 106.9-18.92 106.9-16.16ZM119.13-13.38L119.13-13.38Q120.65-13.04 122.16-12.84 123.67-12.65 125.21-12.65L125.21-12.65Q126.82-12.65 128.2-12.95 129.58-13.26 130.6-13.98 131.61-14.7 132.19-15.89 132.78-17.09 132.78-18.87L132.78-18.87Q132.78-20.31 132.39-21.51 132-22.71 131.23-23.56 130.46-24.41 129.34-24.89 128.22-25.37 126.73-25.37L126.73-25.37Q125.33-25.37 124.22-24.85 123.11-24.34 122.27-23.47 121.43-22.61 120.83-21.46 120.23-20.31 119.84-19.07 119.45-17.82 119.28-16.55 119.11-15.28 119.11-14.16L119.11-14.16Q119.11-13.96 119.11-13.77 119.11-13.57 119.13-13.38ZM139.47-18.95L139.47-18.95Q139.47-17.21 138.91-15.86 138.35-14.5 137.38-13.48 136.42-12.45 135.15-11.74 133.88-11.04 132.44-10.58 131-10.13 129.47-9.94 127.95-9.74 126.51-9.74L126.51-9.74Q124.68-9.74 122.89-10 121.11-10.25 119.38-10.82L119.38-10.82Q119.65-9.2 120.23-7.75 120.82-6.3 121.79-5.21 122.77-4.13 124.2-3.49 125.63-2.86 127.58-2.86L127.58-2.86Q128.87-2.86 130.05-3.25 131.22-3.64 132.19-4.35 133.17-5.05 133.92-6.03 134.66-7.01 135.12-8.2L135.12-8.2 138.69-6.88Q137.88-4.96 136.48-3.55 135.08-2.15 133.31-1.23 131.54-0.32 129.55 0.12 127.56 0.56 125.6 0.56L125.6 0.56Q122.38 0.56 119.65-0.52 116.91-1.61 114.93-3.56 112.96-5.52 111.83-8.23 110.71-10.94 110.71-14.16L110.71-14.16Q110.71-17.38 111.83-20.09 112.96-22.8 114.93-24.76 116.91-26.71 119.65-27.8 122.38-28.88 125.6-28.88L125.6-28.88Q127.17-28.88 128.8-28.66 130.44-28.44 131.97-27.97 133.51-27.49 134.88-26.73 136.25-25.98 137.26-24.87 138.27-23.75 138.87-22.29 139.47-20.83 139.47-18.95Z" opacity="1" transform="matrix(1,0,0,1,0,0)" fill="#ffffff" class="wordmark-text-0" data-fill-palette-color="quaternary" id="text-0"></path></svg></g></svg></g><g transform="matrix(1,0,0,1,0,76.28780784246852)"><svg viewBox="0 0 112.72319999999999 16.08678110882957" height="16.08678110882957" width="112.72319999999999"><g transform="matrix(1,0,0,1,0,0)"><svg width="112.72319999999999" viewBox="0.75 -33.35 243.47 34.75" height="16.08678110882957" data-palette-color="#ffffff"><path d="M12.5-7.35L10.55-0.05 1.75-2.45 3.3-8.25 3.3-23.5 0.75-24.2 2.7-31.5 10.85-29.25 10.85-29.2 10.85-26.25 12.3-31.5 22.75-28.65 23.55-31.5 35-28.35 33.35-22.35 33.35-7.8 35-7.35 33.05-0.05 25.2-2.2 25.8-4.35 25.8-23.05 22.55-23.95 22.1-22.35 22.1-7.8 23.75-7.35 21.8-0.05 13.95-2.2 14.55-4.35 14.55-23.05 10.85-24.05 10.85-7.8 12.5-7.35ZM48.2-2.15L47.45 0.6 36.5-2.4 38.15-8.6 38.15-17.25 36.5-17.7 38.45-25 47.25-22.6 45.7-16.8 45.7-7.7 48.45-6.95 48.9-8.6 48.9-17.25 47.25-17.7 49.2-25 58-22.6 56.45-16.8 56.45-7.7 58-7.3 56.05 0 48.2-2.15ZM74.5-5.8L67.55 0.1 59.75-2 63.35-8.85 72.34-6.4 68.2-12.3 64.25-9.55 59-17.1 64.8-22 64.8-22 70.45-26.75 78.15-24.7 74.5-17.85 66.09-20.15 69.8-14.85 73.7-17.6 76.95-12.95 76.45-7.45 74.5-5.8 74.5-5.8ZM90.64-7.3L88.69 0 79.89-2.4 81.44-8.2 81.44-21.15 79.14-21.35 79.84-28.85 81.44-28.7 81.44-31.7 88.99-31.7 88.99-28 91.44-27.75 90.74-20.25 88.99-20.4 88.99-8.7 85.49-8.7 90.64-7.3ZM103.09-2.15L102.49 0.15 92.94-2.45 93.49-4.5 93.49-19.6 97.44-19.6 98.94-25.5 113.79-21.6 111.89-14.25 110.89-14.5 110.89-7.85 113.49-7.15 111.54 0.15 103.09-2.15ZM101.04-17.15L101.04-8.1 103.34-7.45 103.34-7.5 103.34-16.55 101.04-17.15ZM126.04-7.3L124.09 0 115.29-2.4 116.84-8.2 116.84-16.5 115.29-16.9 117.24-24.2 124.59-22.2 125.14-24.2 131.14-22.55 129.19-15.25 124.39-16.55 124.39-7.75 126.04-7.3ZM145.54-4.3L144.24 0.7 132.39-2.5 132.89-4.4 132.89-19.6 139.69-19.6 135.29-30.5 142.29-33.35 151.39-10.9 151.39-10.9 151.39-4.3 145.54-4.3ZM140.44-17.8L140.44-8.15 143.84-7.25 143.84-9.4 140.44-17.8ZM181.18-5L175.13 0.1 163.13-3.15 166.78-10 179.33-6.55 172.63-14.55 169.98-12.35 160.38-23.9 164.53-27.45 164.53-27.45 165.98-28.65 166.13-28.8 166.13-28.8 171.53-33.35 183.53-30.1 179.88-23.25 168.08-26.5 173.88-19.5 176.43-21.75 183.83-13 183.83-7.2 181.18-5ZM201.78-5.9L199.83 1.4 185.33-2.55 186.18-5.75 186.18-19.6 190.53-19.6 189.63-20.35 194.48-26.15 203.78-18.25 198.93-12.5 199.73-9.6 193.98-8 201.78-5.9ZM196.68-14.35L193.73-16.85 193.73-13.55 196.68-14.35ZM221.73-5.9L219.78 1.4 205.28-2.55 206.13-5.75 206.13-19.6 210.48-19.6 209.58-20.35 214.43-26.15 223.73-18.25 218.88-12.5 219.68-9.6 213.93-8 221.73-5.9ZM216.63-14.35L213.68-16.85 213.68-13.55 216.63-14.35ZM238.37-4.3L237.07 0.7 225.22-2.5 225.72-4.4 225.72-19.6 232.52-19.6 228.12-30.5 235.12-33.35 244.22-10.9 244.22-10.9 244.22-4.3 238.37-4.3ZM233.27-17.8L233.27-8.15 236.67-7.25 236.67-9.4 233.27-17.8Z" opacity="1" transform="matrix(1,0,0,1,0,0)" fill="#ffffff" class="slogan-text-1" data-fill-palette-color="quaternary" id="text-1"></path></svg></g></svg></g></svg></g></svg></g><g><svg viewBox="0 0 108.84412417003026 241.83667387449842" height="241.83667387449842" width="108.84412417003026"><g><svg xmlns="http://www.w3.org/2000/svg" xmlns:xlink="http://www.w3.org/1999/xlink" version="1.1" x="0" y="0" viewBox="36.423 20.51990866938711 26.616 59.13709133061289" enable-background="new 0 0 100 100" xml:space="preserve" height="241.83667387449842" width="108.84412417003026" class="icon-icon-0" data-fill-palette-color="quaternary" id="icon-0"><path d="M44.711 40.599c-0.865-10.093-0.258-15.998 1.911-18.584 0.739-0.882 1.867-1.425 3.093-1.489 1.387-0.07 2.757 0.465 3.848 1.518 0.884 0.853 1.484 2.593 0.711 4.397-0.442 1.034-1.294 1.828-2.277 2.125-0.884 0.269-1.819 0.124-2.628-0.407-0.578-0.378-0.739-1.153-0.36-1.73 0.378-0.578 1.155-0.738 1.73-0.36 0.247 0.161 0.417 0.14 0.536 0.105 0.276-0.083 0.551-0.364 0.702-0.716 0.315-0.735 0.059-1.414-0.148-1.614-0.586-0.565-1.294-0.869-1.981-0.82-0.528 0.028-1.018 0.252-1.31 0.599-1.669 1.99-2.118 7.63-1.334 16.764 0.312 3.637 1.262 7.884 2.34 11.806 0.345 2.495 0.638 5.233 0.378 6.326-0.86-1.113-2.134-4.82-2.929-7.132-0.311-0.903-0.602-1.74-0.883-2.524C45.453 46.04 44.934 43.19 44.711 40.599zM54.277 40.343c-0.501-0.174-1.711-0.516-2.772-0.516-0.768 0-1.458 0.179-1.744 0.731-1.318 2.544 3.511 18.943 0.481 19.399C50.161 59.986 50.08 60 50 60c-2.784 0-5.697-16.85-8.677-16.85-2.354 0-4.9 7.405-4.9 12.664 0 19.675 9.829 23.843 13.308 23.843s13.308-4.167 13.308-23.843C63.039 48.512 59.208 42.057 54.277 40.343z" fill="#ffffff" data-fill-palette-color="quaternary"></path></svg></g></svg></g></svg></g></svg></g></svg></g><defs></defs></svg><rect width="320" height="360" fill="none" stroke="none" visibility="hidden"></rect></g></svg></g></svg>